<?xml version="1.0" standalone="no"?>
<!DOCTYPE svg PUBLIC "-//W3C//DTD SVG 20010904//EN"
 "http://www.w3.org/TR/2001/REC-SVG-20010904/DTD/svg10.dtd">
<svg version="1.0" xmlns="http://www.w3.org/2000/svg"
 width="1700.000000pt" height="1700.000000pt" viewBox="0 0 1700.000000 1700.000000"
 preserveAspectRatio="xMidYMid meet">
<metadata>
Created by potrace 1.11, written by Peter Selinger 2001-2013
</metadata>
<g transform="translate(0.000000,1700.000000) scale(0.100000,-0.100000)"
fill="#000000" stroke="none">
<path d="M8145 15673 c-136 -6 -308 -25 -362 -39 -36 -9 -69 -26 -86 -43 -53
-53 -44 -148 17 -181 14 -7 26 -16 26 -19 0 -3 -71 -26 -158 -50 -698 -196
-1200 -420 -1761 -788 -309 -203 -391 -281 -391 -375 0 -61 69 -137 125 -138
18 -1 18 -2 -5 -21 -89 -75 -369 -344 -462 -444 -151 -165 -218 -257 -413
-570 -298 -477 -363 -647 -417 -1094 -18 -147 -22 -226 -21 -481 0 -168 6
-363 12 -435 6 -71 16 -222 21 -334 6 -113 15 -236 20 -275 10 -72 33 -374 50
-661 12 -193 33 -359 64 -520 37 -185 39 -203 26 -235 -11 -27 -15 -28 -60
-25 -26 3 -59 9 -74 15 -44 16 -132 12 -198 -11 -169 -57 -284 -196 -368 -445
-76 -225 -91 -431 -45 -615 46 -179 74 -252 155 -402 l79 -149 -20 -116 c-29
-164 -29 -326 0 -411 31 -90 64 -151 114 -213 39 -48 44 -60 54 -138 31 -234
92 -379 208 -496 122 -122 284 -187 470 -188 111 0 148 11 217 65 22 18 43 28
48 23 4 -5 20 -63 35 -129 95 -431 234 -906 338 -1162 87 -211 237 -494 346
-648 62 -88 312 -399 459 -570 230 -268 819 -870 972 -993 52 -43 154 -127
225 -188 72 -60 180 -148 240 -194 142 -108 402 -274 463 -295 26 -10 85 -34
132 -55 277 -123 555 -154 975 -111 272 29 403 57 662 142 195 65 275 99 438
189 33 18 85 46 114 62 75 39 190 136 263 222 33 39 174 188 312 331 362 373
471 495 732 815 199 243 231 286 331 435 247 369 384 680 523 1190 56 205 167
768 223 1131 l24 149 76 -3 c99 -5 162 14 257 77 109 71 209 168 300 290 131
174 177 281 203 473 12 82 18 102 43 130 47 54 95 134 110 185 20 64 10 131
-37 269 l-38 111 6 449 c6 496 -3 707 -37 816 -11 36 -45 104 -76 152 -46 71
-74 101 -153 163 -128 101 -185 128 -276 128 -85 -1 -149 -29 -255 -111 l-70
-55 0 153 c0 84 -4 225 -10 313 -5 88 -17 309 -25 490 -25 534 -92 1138 -150
1367 -8 31 -24 102 -36 159 -22 112 -89 298 -150 421 -29 57 -39 90 -39 125 0
86 -20 175 -74 333 -73 213 -97 272 -181 445 -126 261 -245 423 -476 652 -172
169 -233 220 -331 276 -63 36 -236 114 -290 131 -16 5 -16 8 -1 43 23 56 21
198 -6 300 -44 172 -96 254 -278 438 -189 192 -306 276 -565 406 -203 102
-336 154 -510 199 -359 93 -625 140 -906 159 -136 10 -535 12 -697 4z"/>
</g>
</svg>
